# xmcd CD database file
#
# Track frame offsets:
#	150
#	42861
#	68664
#	91553
#	113148
#	139566
#	159752
#	173450
#	198536
#	238123
#	261158
#	279073
#	308510
#	329361
#
# Disc length: 4778 seconds
#
# Revision: 0
# Processed by: cddbd v1.5.2PL0 Copyright (c) Steve Scherf et al.
# Submitted via: CDex 1.51
#
DISCID=a712a80e
DTITLE=Alexander Saga - Vallery of Dreams
DYEAR=2005
DGENRE=Blues
TTITLE0=Saga of Spain
TTITLE1=Plamencomania
TTITLE2=Vallery of Dreams
TTITLE3=Mashen'ka (Little Mary)
TTITLE4="Spain" Popourri
TTITLE5=Samba for Irkutsk
TTITLE6=Fair
TTITLE7=Baikal Dawn
TTITLE8=Intermezzo
TTITLE9=Rhapsody
TTITLE10=A Wish for Trip
TTITLE11=Aranjuez
TTITLE12=Aria
TTITLE13=Cm Fantazia
EXTD=YEAR: 2005
EXTT0=
EXTT1=
EXTT2=
EXTT3=
EXTT4=
EXTT5=
EXTT6=
EXTT7=
EXTT8=
EXTT9=
EXTT10=
EXTT11=
EXTT12=
EXTT13=
PLAYORDER=
